<svg xmlns="http://www.w3.org/2000/svg" width="509" height="356">
 <!-- Created with Image Occlusion Enhanced -->
 <g>
  <title>Labels</title>
 </g>
 <g>
  <title>Masks</title>
  <rect id="5a8b11e54529419ba504cd7b438761f7-ao-1" height="13.93939" width="84.84849" y="61.57573" x="100.09093" stroke="#2D2D2D" fill="#ff7f00"/>
  <rect id="5a8b11e54529419ba504cd7b438761f7-ao-2" height="17.57576" width="57.57576" y="80.36361" x="36.45456" stroke="#2D2D2D" fill="#ff7f00"/>
  <rect id="5a8b11e54529419ba504cd7b438761f7-ao-3" height="18.18182" width="34.54546" y="80.36361" x="116.45456" stroke="#2D2D2D" fill="#ff7f00"/>
  <rect id="5a8b11e54529419ba504cd7b438761f7-ao-4" height="13.93939" width="64.24243" y="101.57573" x="60.09093" stroke="#2D2D2D" fill="#ff7f00"/>
  <rect id="5a8b11e54529419ba504cd7b438761f7-ao-5" height="15.75758" width="78.18182" y="120.36361" x="60.69699" stroke="#2D2D2D" fill="#ff7f00"/>
  <rect id="5a8b11e54529419ba504cd7b438761f7-ao-6" height="16.9697" width="33.33333" y="139.15149" x="127.96972" stroke="#2D2D2D" fill="#ff7f00"/>
  <rect id="5a8b11e54529419ba504cd7b438761f7-ao-7" height="17.57576" width="132.12122" y="156.72725" x="69.18183" stroke="#2D2D2D" fill="#ff7f00"/>
  <rect id="5a8b11e54529419ba504cd7b438761f7-ao-8" height="16.9697" width="52.72727" y="179.15149" x="121.90911" stroke="#2D2D2D" fill="#ff7f00"/>
  <rect id="5a8b11e54529419ba504cd7b438761f7-ao-9" height="16.36364" width="75.75758" y="197.33331" x="34.03032" stroke="#2D2D2D" fill="#ff7f00"/>
  <rect id="5a8b11e54529419ba504cd7b438761f7-ao-10" height="16.36364" width="83.03031" y="199.15149" x="132.8182" stroke="#2D2D2D" fill="#ff7f00"/>
  <rect id="5a8b11e54529419ba504cd7b438761f7-ao-11" height="16.36364" width="69.69697" y="215.51513" x="60.69699" stroke="#2D2D2D" fill="#ff7f00"/>
  <rect id="5a8b11e54529419ba504cd7b438761f7-ao-12" height="17.57576" width="91.51515" y="233.69695" x="69.7879" stroke="#2D2D2D" fill="#ff7f00"/>
  <rect id="5a8b11e54529419ba504cd7b438761f7-ao-13" height="16.9697" width="63.63637" y="257.33331" x="36.45456" stroke="#2D2D2D" fill="#ff7f00"/>
  <rect id="5a8b11e54529419ba504cd7b438761f7-ao-14" height="18.18182" width="36.9697" y="256.12119" x="124.93941" stroke="#2D2D2D" fill="#ff7f00"/>
  <rect id="5a8b11e54529419ba504cd7b438761f7-ao-15" height="16.36364" width="118.78788" y="274.90907" x="36.45456" stroke="#2D2D2D" fill="#ff7f00"/>
  <rect id="5a8b11e54529419ba504cd7b438761f7-ao-16" height="18.18182" width="52.12121" y="274.30301" x="176.45457" stroke="#2D2D2D" fill="#ff7f00"/>
  <rect id="5a8b11e54529419ba504cd7b438761f7-ao-17" height="14.54545" width="100" y="316.12119" x="122.51517" stroke="#2D2D2D" fill="#ff7f00"/>
  <rect id="5a8b11e54529419ba504cd7b438761f7-ao-18" height="15.15152" width="101.81818" y="334.90907" x="120.69699" stroke="#2D2D2D" fill="#ff7f00"/>
 </g>
</svg>